<svg xmlns="http://www.w3.org/2000/svg" viewBox="0 0 32 32">
  <defs>
    <linearGradient id="grad" x1="0%" y1="0%" x2="100%" y2="100%">
      <stop offset="0%" stop-color="#e84a7b"/>
      <stop offset="50%" stop-color="#c026d3"/>
      <stop offset="100%" stop-color="#6366f1"/>
    </linearGradient>
  </defs>
  <!-- Hourglass frame -->
  <path d="M6 4 L26 4 L26 6 L24 6 L24 10 C24 12 22 14 16 16 C22 18 24 20 24 22 L24 26 L26 26 L26 28 L6 28 L6 26 L8 26 L8 22 C8 20 10 18 16 16 C10 14 8 12 8 10 L8 6 L6 6 Z" 
        fill="url(#grad)"/>
  <!-- Sand top -->
  <path d="M10 7 L22 7 L22 9.5 C22 11 20.5 12.5 16 14.5 C11.5 12.5 10 11 10 9.5 Z" 
        fill="white" 
        fill-opacity="0.5"/>
  <!-- Sand bottom -->
  <path d="M12 24 L20 24 L20 25 L16 25 C14 25 12 24.5 12 24 Z" 
        fill="white" 
        fill-opacity="0.6"/>
  <!-- Falling grain -->
  <circle cx="16" cy="18" r="0.8" fill="white" fill-opacity="0.7"/>
</svg>