<svg xmlns="http://www.w3.org/2000/svg" viewBox="0 0 64 64" class="hourglass-icon">
  <defs>
    <linearGradient id="hourglassGrad" x1="0%" y1="0%" x2="100%" y2="100%">
      <stop offset="0%" stop-color="rgba(255,255,255,0.9)"/>
      <stop offset="100%" stop-color="rgba(255,255,255,0.5)"/>
    </linearGradient>
    <linearGradient id="sandGrad" x1="0%" y1="0%" x2="0%" y2="100%">
      <stop offset="0%" stop-color="rgba(255,255,255,0.6)"/>
      <stop offset="100%" stop-color="rgba(255,255,255,0.3)"/>
    </linearGradient>
  </defs>
  
  <!-- Hourglass frame -->
  <path d="M12 8 L52 8 L52 12 L48 12 L48 20 C48 24 44 28 32 32 C44 36 48 40 48 44 L48 52 L52 52 L52 56 L12 56 L12 52 L16 52 L16 44 C16 40 20 36 32 32 C20 28 16 24 16 20 L16 12 L12 12 Z" 
        fill="none" 
        stroke="url(#hourglassGrad)" 
        stroke-width="2"
        stroke-linecap="round"
        stroke-linejoin="round"/>
  
  <!-- Top caps -->
  <rect x="12" y="8" width="40" height="4" rx="1" fill="url(#hourglassGrad)" fill-opacity="0.3"/>
  <rect x="12" y="52" width="40" height="4" rx="1" fill="url(#hourglassGrad)" fill-opacity="0.3"/>
  
  <!-- Sand in top -->
  <path d="M20 14 L44 14 L44 18 C44 21 41 24 32 28 C23 24 20 21 20 18 Z" 
        fill="url(#sandGrad)"/>
  
  <!-- Sand in bottom -->
  <path d="M24 48 L40 48 L40 50 L32 50 C26 50 24 49 24 48 Z" 
        fill="url(#sandGrad)"/>
  
  <!-- Falling sand stream -->
  <line x1="32" y1="30" x2="32" y2="44" 
        stroke="rgba(255,255,255,0.4)" 
        stroke-width="1.5" 
        stroke-linecap="round"
        stroke-dasharray="2 3"/>
  
  <!-- Glint/highlight -->
  <path d="M22 16 L26 16" 
        stroke="rgba(255,255,255,0.8)" 
        stroke-width="1.5" 
        stroke-linecap="round"/>
</svg>